{
	"asset":{
		"generator":"Khronos glTF Blender I/O v3.5.30",
		"version":"2.0"
	},
	"scene":0,
	"scenes":[
		{
			"name":"Scene",
			"nodes":[
				0
			]
		}
	],
	"nodes":[
		{
			"mesh":0,
			"name":"Curve.005",
			"scale":[
				540.4890747070312,
				540.4890747070312,
				540.4890747070312
			]
		}
	],
	"materials":[
		{
			"doubleSided":true,
			"name":"SVGMat.030",
			"pbrMetallicRoughness":{
				"baseColorFactor":[
					1,
					1,
					1,
					1
				],
				"metallicFactor":0,
				"roughnessFactor":0.4000000059604645
			}
		}
	],
	"meshes":[
		{
			"name":"Curve.025",
			"primitives":[
				{
					"attributes":{
						"POSITION":0,
						"TEXCOORD_0":1,
						"NORMAL":2
					},
					"indices":3,
					"material":0
				}
			]
		}
	],
	"accessors":[
		{
			"bufferView":0,
			"componentType":5126,
			"count":773,
			"max":[
				0.050078053027391434,
				0.024173248559236526,
				-0.01915181800723076
			],
			"min":[
				0.020856784656643867,
				0,
				-0.08585843443870544
			],
			"type":"VEC3"
		},
		{
			"bufferView":1,
			"componentType":5126,
			"count":773,
			"type":"VEC2"
		},
		{
			"bufferView":2,
			"componentType":5126,
			"count":773,
			"type":"VEC3"
		},
		{
			"bufferView":3,
			"componentType":5123,
			"count":1932,
			"type":"SCALAR"
		}
	],
	"bufferViews":[
		{
			"buffer":0,
			"byteLength":9276,
			"byteOffset":0,
			"target":34962
		},
		{
			"buffer":0,
			"byteLength":6184,
			"byteOffset":9276,
			"target":34962
		},
		{
			"buffer":0,
			"byteLength":9276,
			"byteOffset":15460,
			"target":34962
		},
		{
			"buffer":0,
			"byteLength":3864,
			"byteOffset":24736,
			"target":34963
		}
	],
	"buffers":[
		{
			"byteLength":28600,
			"uri":"data:application/octet-stream;base64,"
		}
	]
}
